<?xml version="1.0" encoding="utf-8"?>
<!-- Generator: Adobe Illustrator 26.0.3, SVG Export Plug-In . SVG Version: 6.00 Build 0)  -->
<svg version="1.1" id="Layer_1" xmlns="http://www.w3.org/2000/svg" xmlns:xlink="http://www.w3.org/1999/xlink" x="0px" y="0px"
	 viewBox="0 0 500 500" style="enable-background:new 0 0 500 500;" xml:space="preserve">
<style type="text/css">
	.st0{display:none;fill:#EE2E2C;}
	.st1{fill:#EE2E2C;}
	.st2{fill:#FFFFFF;}
</style>
<rect class="st0" width="500" height="500"/>
<circle class="st1" cx="250" cy="250" r="250"/>
<g>
	<path class="st2" d="M250,74.3c-5.7,0-11.3,0.3-16.9,0.8v17.1c5.5-0.6,11.2-0.9,16.9-0.9c58.1,0,109,31.4,136.7,78.1
		c0.4,0.6,0.7,1.3,1.1,1.9c13.3,23.2,20.9,50.1,20.9,78.7c0,28.6-7.6,55.5-20.9,78.7c-0.4,0.6-0.7,1.3-1.1,1.9
		c-24.8,41.9-68.2,71.4-118.8,77.1c-4.8,0.6-9.8,0.9-14.7,1v-198h1.3c9.5,0.6,17.4,3.7,23.6,9.4c6.2,5.6,9.3,13.4,9.3,23.3v72.6
		h24.8v-72.6c0-9.9,3.1-17.7,9.3-23.3c6.2-5.6,14-8.7,23.6-9.4h1.3v105.2h26.7V184.1h-27.9c-8.7,0-17.2,1.9-25.5,5.8
		c-8.3,3.9-15,9.2-19.9,15.9c-5-6.7-11.6-12.1-20-15.9c-8.3-3.9-16.8-5.8-25.5-5.8h-27.9v222.8v17.2c7.7,1.1,15.6,1.6,23.6,1.6
		c1.1,0,2.1,0,3.1,0c5-0.1,9.9-0.4,14.7-0.9c88.5-9,157.8-84,157.8-174.8C425.7,153.1,346.9,74.3,250,74.3z"/>
	<path class="st2" d="M176.9,90.2C116.4,118,74.3,179.2,74.3,250c0,83.7,58.9,154,137.4,171.5V404c-41.7-10.4-77-37.3-98.4-73.4
		c-0.4-0.6-0.7-1.2-1.1-1.9c-13.3-23.2-20.9-50.1-20.9-78.7c0-28.6,7.6-55.5,20.9-78.7c0.4-0.6,0.7-1.3,1.1-1.9
		c15.1-25.6,37.2-46.5,63.6-60.3c4.8-2.5,9.7-4.7,14.7-6.7V211c-7-8.5-16-15.1-27.1-19.9c-11.1-4.7-23.6-7.1-37.6-7.1v131.7h26.7
		V216c12.2,3.3,21.6,9.8,28.2,19.4c6.6,9.6,9.8,23.1,9.8,40.4v40.1h26.7V94.5V77.2c-9.2,1.7-18.1,4.1-26.7,7.1
		C186.7,86,181.7,88,176.9,90.2z"/>
</g>
</svg>
