<?xml version="1.0" encoding="utf-8"?>
<!-- Generator: Adobe Illustrator 26.0.2, SVG Export Plug-In . SVG Version: 6.00 Build 0)  -->
<svg version="1.1" id="Layer_1" xmlns="http://www.w3.org/2000/svg" xmlns:xlink="http://www.w3.org/1999/xlink" x="0px" y="0px"
	 viewBox="0 0 173 172.3" style="enable-background:new 0 0 173 172.3;" xml:space="preserve">
<style type="text/css">
	.st0{fill:#EF3F35;}
	.st1{fill:#FFFFFF;}
</style>
<circle class="st0" cx="86.5" cy="86.5" r="80"/>
<path class="st1" d="M38,60.5h2.8v21H38V60.5z M45.4,60.5h2.6l11.1,16.4V60.5H62v21h-2.6L48.2,65.1v16.3h-2.8V60.5z M68.5,81.5
	c-0.7,0-1.3-0.2-1.7-0.6c-0.4-0.4-0.6-1-0.6-1.7V60.5h9.2c1.5,0,2.8,0.3,4,0.9c1.2,0.6,2.1,1.4,2.7,2.5c0.6,1.1,1,2.3,1,3.7v6.4
	c0,2.5-0.6,4.4-1.9,5.7c-1.3,1.3-3.1,1.9-5.6,1.9H68.5z M75.4,78.9c1.6,0,2.7-0.4,3.5-1.3c0.8-0.9,1.2-2.1,1.2-3.8v-6.2
	c0-1.4-0.4-2.4-1.3-3.3c-0.9-0.8-2-1.3-3.5-1.3h-6.2v15.9H75.4z M93.3,81.7c-1.5,0-2.8-0.3-3.9-1c-1.1-0.6-2-1.5-2.6-2.7
	C86.3,76.9,86,75.5,86,74v-6.1c0-1.5,0.3-2.9,0.9-4c0.6-1.2,1.5-2.1,2.6-2.7c1.1-0.6,2.4-1,3.9-1h3.2c1.5,0,2.7,0.3,3.8,1
	c1.1,0.6,2,1.5,2.6,2.7c0.6,1.2,0.9,2.5,0.9,4V74c0,1.5-0.3,2.9-0.9,4.1c-0.6,1.2-1.5,2.1-2.6,2.7s-2.4,1-3.8,1H93.3z M96.5,79.2
	c1.4,0,2.5-0.5,3.3-1.4c0.8-1,1.3-2.2,1.3-3.8V68c0-1.6-0.4-2.8-1.3-3.8c-0.8-1-1.9-1.4-3.3-1.4h-3.1c-1.4,0-2.5,0.5-3.3,1.4
	c-0.8,0.9-1.3,2.2-1.3,3.8v5.9c0,1.6,0.4,2.8,1.2,3.8c0.8,0.9,1.9,1.4,3.3,1.4H96.5z M44.3,114.7c-1.4,0-2.7-0.3-3.8-1
	c-1.1-0.6-1.9-1.5-2.5-2.7c-0.6-1.2-0.9-2.5-0.9-4.1v-6c0-1.5,0.3-2.9,0.9-4.1c0.6-1.2,1.5-2.1,2.6-2.7c1.1-0.6,2.4-1,3.8-1h3.2
	c1.4,0,2.6,0.3,3.7,0.9c1.1,0.6,1.9,1.4,2.5,2.4c0.6,1,0.9,2.2,0.9,3.6h-2.8c0-1.3-0.4-2.4-1.2-3.2c-0.8-0.8-1.8-1.2-3-1.2h-3.2
	c-1.3,0-2.4,0.5-3.2,1.4S40,99.5,40,101v5.9c0,1.6,0.4,2.8,1.2,3.8c0.8,1,1.9,1.4,3.2,1.4h3.4c1.3,0,2.3-0.5,3.1-1.4
	c0.8-0.9,1.2-2.1,1.2-3.5v-1.4h-5.8v-2.5h8.6v3.9c0,1.4-0.3,2.7-0.9,3.8c-0.6,1.1-1.4,2-2.5,2.6c-1.1,0.6-2.3,0.9-3.7,0.9H44.3z
	 M65.1,114.7c-1.5,0-2.8-0.3-3.9-1c-1.1-0.6-2-1.5-2.6-2.7c-0.6-1.2-0.9-2.5-0.9-4.1v-6.1c0-1.5,0.3-2.9,0.9-4.1
	c0.6-1.2,1.5-2.1,2.6-2.7s2.4-1,3.9-1h3.2c1.5,0,2.7,0.3,3.8,1c1.1,0.6,2,1.5,2.6,2.7c0.6,1.2,0.9,2.5,0.9,4.1v6.1
	c0,1.5-0.3,2.9-0.9,4.1c-0.6,1.2-1.5,2.1-2.6,2.7s-2.4,1-3.8,1H65.1z M68.3,112.2c1.4,0,2.5-0.5,3.3-1.4c0.8-1,1.3-2.2,1.3-3.8V101
	c0-1.6-0.4-2.8-1.3-3.8c-0.8-1-1.9-1.4-3.3-1.4h-3.1c-1.4,0-2.5,0.5-3.3,1.4c-0.8,0.9-1.3,2.2-1.3,3.8v5.9c0,1.6,0.4,2.8,1.2,3.8
	c0.8,0.9,1.9,1.4,3.3,1.4H68.3z M86.1,114.7c-1.5,0-2.8-0.3-3.9-1c-1.1-0.6-2-1.5-2.6-2.7c-0.6-1.2-0.9-2.5-0.9-4.1v-6.1
	c0-1.5,0.3-2.9,0.9-4.1c0.6-1.2,1.5-2.1,2.6-2.7c1.1-0.6,2.4-1,3.9-1h3.2c1.5,0,2.7,0.3,3.8,1c1.1,0.6,2,1.5,2.6,2.7
	c0.6,1.2,0.9,2.5,0.9,4.1v6.1c0,1.5-0.3,2.9-0.9,4.1c-0.6,1.2-1.5,2.1-2.6,2.7c-1.1,0.6-2.4,1-3.8,1H86.1z M89.2,112.2
	c1.4,0,2.5-0.5,3.3-1.4c0.8-1,1.3-2.2,1.3-3.8V101c0-1.6-0.4-2.8-1.3-3.8c-0.8-1-1.9-1.4-3.3-1.4h-3.1c-1.4,0-2.5,0.5-3.3,1.4
	c-0.8,0.9-1.3,2.2-1.3,3.8v5.9c0,1.6,0.4,2.8,1.2,3.8c0.8,0.9,1.9,1.4,3.3,1.4H89.2z M102.6,114.5c-0.7,0-1.3-0.2-1.7-0.6
	c-0.4-0.4-0.6-1-0.6-1.7V93.5h9.1c1.5,0,2.8,0.3,4,0.9c1.2,0.6,2,1.4,2.7,2.5c0.6,1.1,1,2.3,1,3.7v6.4c0,2.5-0.6,4.4-1.9,5.7
	c-1.3,1.3-3.1,1.9-5.6,1.9H102.6z M109.5,111.9c1.6,0,2.7-0.4,3.5-1.3c0.8-0.9,1.2-2.1,1.2-3.8v-6.2c0-1.4-0.4-2.5-1.3-3.3
	c-0.9-0.8-2.1-1.3-3.5-1.3h-6.2v15.9H109.5z M126.3,114.7c-1.9,0-3.5-0.6-4.7-1.7c-1.2-1.2-1.7-2.7-1.7-4.7h2.8c0,1.2,0.3,2.1,1,2.8
	c0.7,0.7,1.6,1.1,2.7,1.1h3.3c1.1,0,2-0.2,2.6-0.7c0.7-0.5,1-1.1,1-1.9V108c0-0.6-0.2-1.1-0.7-1.6c-0.5-0.4-1.1-0.7-2-0.8l-5.5-0.9
	c-1.6-0.3-2.8-0.8-3.7-1.7c-0.9-0.8-1.3-1.9-1.3-3.2v-1.7c0-1.5,0.6-2.7,1.7-3.6c1.2-0.9,2.7-1.4,4.6-1.4h3.4c1.2,0,2.2,0.2,3.1,0.8
	c0.9,0.5,1.6,1.2,2.1,2.1c0.5,0.9,0.8,1.9,0.8,3.1H133c0-1-0.3-1.8-0.9-2.4c-0.6-0.6-1.4-0.9-2.3-0.9h-3.4c-1,0-1.8,0.2-2.5,0.7
	c-0.6,0.4-0.9,1.1-0.9,1.8v1.3c0,0.6,0.2,1.2,0.7,1.6c0.5,0.4,1.1,0.7,1.9,0.9l5.4,0.9c1.7,0.3,2.9,0.8,3.8,1.7
	c0.9,0.8,1.4,1.8,1.4,3v1.9c0,1.5-0.6,2.7-1.8,3.7c-1.2,0.9-2.7,1.4-4.6,1.4H126.3z"/>
</svg>
